HIERARCHY
ROOT Hips
{
	OFFSET 0.000000 0.000000 0.000000 
	CHANNELS 6 Xposition Yposition Zposition Zrotation Yrotation Xrotation
	JOINT LeftUpLeg
	{
		OFFSET 1.363060 -1.794630 0.839290 
		CHANNELS 3 Zrotation Yrotation Xrotation
		JOINT LeftLeg
		{
			OFFSET 2.448110 -6.726130 0.000000 
			CHANNELS 3 Zrotation Yrotation Xrotation
			JOINT LeftFoot
			{
				OFFSET 2.562200 -7.039590 0.000000 
				CHANNELS 3 Zrotation Yrotation Xrotation
				JOINT LeftToeBase
				{
					OFFSET 0.157640 -0.433110 2.322550 
					CHANNELS 3 Zrotation Yrotation Xrotation
					End Site
					{
						OFFSET 0.000000 0.000000 0.000000 
					}
				}
			}
		}
	}
	JOINT RightUpLeg
	{
		OFFSET -1.305520 -1.794630 0.839290 
		CHANNELS 3 Zrotation Yrotation Xrotation
		JOINT RightLeg
		{
			OFFSET -2.542530 -6.985550 0.000000 
			CHANNELS 3 Zrotation Yrotation Xrotation
			JOINT RightFoot
			{
				OFFSET -2.568260 -7.056230 0.000000 
				CHANNELS 3 Zrotation Yrotation Xrotation
				JOINT RightToeBase
				{
					OFFSET -0.164730 -0.452590 2.363150 
					CHANNELS 3 Zrotation Yrotation Xrotation
					End Site
					{
						OFFSET 0.000000 0.000000 0.000000 
					}
				}
			}
		}
	}
	JOINT Spine
	{
		OFFSET 0.028270 2.035590 -0.193380 
		CHANNELS 3 Zrotation Yrotation Xrotation
		JOINT Spine1
		{
			OFFSET 0.056720 2.048850 -0.042750 
			CHANNELS 3 Zrotation Yrotation Xrotation
			JOINT Neck1
			{
				OFFSET -0.054170 1.746240 0.172020 
				CHANNELS 3 Zrotation Yrotation Xrotation
				JOINT Head
				{
					OFFSET 0.104070 1.761360 -0.123970 
					CHANNELS 3 Zrotation Yrotation Xrotation
					End Site
					{
						OFFSET 0.000000 0.000000 0.000000 
					}
				}
			}
			JOINT LeftArm
			{
				OFFSET 3.362410 1.200890 -0.311210 
				CHANNELS 3 Zrotation Yrotation Xrotation
				JOINT LeftForeArm
				{
					OFFSET 4.983000 -0.000000 -0.000000 
					CHANNELS 3 Zrotation Yrotation Xrotation
					JOINT LeftHand
					{
						OFFSET 3.483560 -0.000000 -0.000000 
						CHANNELS 3 Zrotation Yrotation Xrotation
						JOINT LeftHandIndex1
						{
							OFFSET 0.715260 -0.000000 -0.000000 
							CHANNELS 3 Zrotation Yrotation Xrotation
							End Site
							{
								OFFSET 0.000000 0.000000 0.000000 
							}
						}
					}
				}
			}
			JOINT RightArm
			{
				OFFSET -3.136600 1.374050 -0.404650 
				CHANNELS 3 Zrotation Yrotation Xrotation
				JOINT RightForeArm
				{
					OFFSET -5.241900 -0.000000 -0.000000 
					CHANNELS 3 Zrotation Yrotation Xrotation
					JOINT RightHand
					{
						OFFSET -3.444170 -0.000000 -0.000000 
						CHANNELS 3 Zrotation Yrotation Xrotation
						JOINT RightHandIndex1
						{
							OFFSET -0.622530 -0.000000 -0.000000 
							CHANNELS 3 Zrotation Yrotation Xrotation
							End Site
							{
								OFFSET 0.000000 0.000000 0.000000 
							}
						}
					}
				}
			}
		}
	}
}
MOTION
Frames: 6
Frame Time: 0.041667
-11.898573 17.456414 -21.887371 -76.309028 79.235275 -71.960922 -0.574770 -1.575964 -32.507257 3.738242 12.957392 38.116343 1.204100 -6.090365 -3.743033 0.001100 -0.213100 -0.585400 28.238994 -2.055244 5.556169 0.922494 -3.232390 6.363944 -0.686789 0.876904 -3.125228 -0.988500 -6.328000 17.739100 2.563506 2.161034 -2.656536 2.785366 1.289953 2.117209 3.002294 -1.198101 21.225375 2.510200 -1.098500 14.672500 -90.179010 7.829615 14.030694 13.102656 -24.011423 -3.127866 -0.122442 0.079915 0.429427 -7.125000 0.000000 0.000000 78.742486 2.469842 20.287889 -12.133527 20.259014 -2.639182 0.711010 -0.227792 -9.678179 7.125000 0.000000 0.000000 
-11.826908 17.449657 -21.899554 -76.345734 79.279637 -71.815663 -0.625408 -1.683714 -32.491827 3.234214 12.387102 36.073803 1.196477 -5.765194 -3.677422 0.010300 0.654600 1.799000 28.066221 -2.085284 5.801930 0.932142 -3.067165 5.914424 -0.681153 0.851999 -2.861413 -1.125700 -6.739400 18.945500 2.452032 2.269467 -2.664924 2.465585 1.353233 2.195096 3.526610 -1.584996 21.072906 2.968400 -1.309900 14.661100 -89.912126 7.864094 14.071691 12.805562 -23.573520 -3.005207 -0.120968 0.070252 0.549504 -7.125000 0.000000 0.000000 78.999107 2.478237 20.566545 -12.193194 20.365100 -2.664466 0.735116 -0.216778 -10.871338 7.125000 0.000000 0.000000 
-11.753502 17.444947 -21.904161 -76.712343 79.354196 -71.978914 -0.659007 -1.808770 -32.503079 2.769073 11.823939 34.114757 1.176245 -5.368747 -3.687249 0.009700 0.636600 1.749500 28.005124 -2.276663 6.324558 0.946142 -2.667291 4.831008 -0.662514 0.764366 -2.306659 -1.228600 -7.029700 19.803300 2.415344 2.274680 -2.687215 2.374424 1.358383 2.211688 3.677177 -1.624214 20.997573 3.105800 -1.341900 14.628800 -89.821255 8.047948 14.700112 12.535539 -23.214139 -2.901291 -0.120961 0.067567 0.140121 -7.125000 0.000000 0.000000 78.833425 2.347950 21.435692 -12.348339 20.590835 -2.720718 0.775781 -0.182186 -12.319310 7.125000 0.000000 0.000000 
-11.682042 17.448121 -21.893002 -77.945320 79.107842 -73.252650 -0.201806 -2.037366 -32.193955 2.351495 11.260019 32.202249 1.212353 -5.428718 -3.251844 0.002300 0.310600 0.853500 28.578861 -2.958739 7.963726 0.935016 -1.633531 2.018952 -0.553507 0.169572 -1.235578 -1.116000 -6.711100 18.862200 2.596873 2.017108 -2.669079 2.907132 1.228630 2.211605 3.455008 -1.253414 21.005222 3.048900 -1.259900 14.674000 -90.560718 8.085648 14.079733 12.236302 -22.832305 -2.798839 -0.117154 0.081453 0.298052 -7.125000 0.000000 0.000000 78.076319 2.610182 21.233482 -12.239089 20.452031 -2.685054 0.682999 -0.213808 -10.027055 7.125000 0.000000 0.000000 
-11.609967 17.461635 -21.891159 -78.358990 79.211444 -73.618485 -0.227669 -2.241370 -31.993971 1.938384 10.685817 30.311739 1.213662 -5.322074 -2.791902 0.000200 -0.088600 -0.243400 28.550301 -3.345921 8.821562 0.911855 -1.156145 0.713587 -0.475719 -0.279365 -0.961636 -0.892000 -6.019800 16.841900 2.431169 2.472428 -2.688350 2.381238 1.461883 2.116725 3.232832 -2.025306 20.860619 2.657500 -1.459700 14.552500 -89.775190 7.968881 14.200587 11.831697 -22.261627 -2.650534 -0.117773 0.071240 1.182171 -7.125000 0.000000 0.000000 78.854033 2.383227 20.207792 -12.372427 20.622528 -2.736953 0.679254 -0.210844 -10.615522 7.125000 0.000000 0.000000 
-11.527142 17.435119 -21.899759 -77.466488 79.354993 -72.693096 -0.373434 -2.210940 -31.932304 1.571194 10.147020 28.572974 1.142099 -4.732767 -2.599272 0.006600 -0.525500 -1.443900 28.206690 -3.205424 9.004544 0.909190 -1.154680 0.717567 -0.595135 0.387916 -0.681380 -1.411700 -7.514800 21.249900 2.712702 1.785888 -2.672411 3.592401 1.094155 2.189680 3.204905 -0.739075 20.976941 2.958500 -1.100900 14.552600 -91.689496 7.991029 10.538135 11.459171 -21.778311 -2.541513 -0.101412 0.101495 3.102054 -7.125000 0.000000 0.000000 77.443978 2.504733 22.880568 -12.486025 20.770491 -2.765920 0.732872 -0.163024 -12.279392 7.125000 0.000000 0.000000 
